<?xml version="1.0" encoding="UTF-8"?>
<svg width="13px" height="14px" viewBox="0 0 13 14" version="1.1" xmlns="http://www.w3.org/2000/svg" xmlns:xlink="http://www.w3.org/1999/xlink">
    <!-- Generator: Sketch 52.6 (67491) - http://www.bohemiancoding.com/sketch -->
    <title>down-arrow-white</title>
    <desc>Created with Sketch.</desc>
    <g id="Page-1" stroke="none" stroke-width="1" fill="none" fill-rule="evenodd">
        <g id="Artboard" transform="translate(-450.000000, -1306.000000)" fill="#FFFFFF" fill-rule="nonzero">
            <path d="M450.929764,1308.47017 L461.323655,1303.65022 C461.985019,1303.34353 462.769786,1303.63105 463.076479,1304.29241 C463.206663,1304.57315 463.234079,1304.89069 463.153937,1305.18959 L460.097243,1316.58966 C459.908441,1317.2938 459.184566,1317.71157 458.480422,1317.52277 C458.126351,1317.42783 457.827704,1317.18993 457.656012,1316.86604 L455.569574,1312.93014 C455.416977,1312.64228 455.163311,1312.42102 454.857387,1312.30894 L451.031003,1310.90711 C450.346479,1310.65633 449.994861,1309.89812 450.245642,1309.21359 C450.366073,1308.88487 450.61216,1308.61745 450.929764,1308.47017 Z" id="down-arrow-white" transform="translate(456.690602, 1310.540431) rotate(140.000000) translate(-456.690602, -1310.540431) "></path>
        </g>
    </g>
</svg>