<?xml version="1.0" encoding="UTF-8"?>
<svg width="29px" height="35px" viewBox="0 0 29 35" version="1.1" xmlns="http://www.w3.org/2000/svg" xmlns:xlink="http://www.w3.org/1999/xlink">
    <!-- Generator: Sketch 52.6 (67491) - http://www.bohemiancoding.com/sketch -->
    <title>trash-white</title>
    <desc>Created with Sketch.</desc>
    <g id="Page-1" stroke="none" stroke-width="1" fill="none" fill-rule="evenodd">
        <g id="Artboard" transform="translate(-402.000000, -1230.000000)" fill="#FFFFFF">
            <g id="trash-white" transform="translate(402.000000, 1230.000000)">
                <path d="M4.05701357,6.39423077 L24.60181,6.39423077 C26.0887304,6.39423077 27.2941176,7.59961798 27.2941176,9.08653846 L27.2941176,32.3076923 C27.2941176,33.7946128 26.0887304,35 24.60181,35 L4.05701357,35 C2.57009309,35 1.36470588,33.7946128 1.36470588,32.3076923 L1.36470588,9.08653846 C1.36470588,7.59961798 2.57009309,6.39423077 4.05701357,6.39423077 Z M7.33985053,12.8527384 C7.33985053,12.0706329 6.70582879,11.4366112 5.92372334,11.4366112 C5.14161788,11.4366112 4.50759615,12.0706329 4.50759615,12.8527384 L4.50759615,28.5414924 C4.50759615,29.3235978 5.14161788,29.9576196 5.92372334,29.9576196 C6.70582879,29.9576196 7.33985053,29.3235978 7.33985053,28.5414924 L7.33985053,12.8527384 Z M15.8880082,12.8527384 C15.8880082,12.0706329 15.2539865,11.4366112 14.4718811,11.4366112 C13.6897756,11.4366112 13.0557539,12.0706329 13.0557539,12.8527384 L13.0557539,28.5414924 C13.0557539,29.3235978 13.6897756,29.9576196 14.4718811,29.9576196 C15.2539865,29.9576196 15.8880082,29.3235978 15.8880082,28.5414924 L15.8880082,12.8527384 Z M24.7211046,12.8527384 C24.7211046,12.0706329 24.0870828,11.4366112 23.3049774,11.4366112 C22.5228719,11.4366112 21.8888502,12.0706329 21.8888502,12.8527384 L21.8888502,28.5414924 C21.8888502,29.3235978 22.5228719,29.9576196 23.3049774,29.9576196 C24.0870828,29.9576196 24.7211046,29.3235978 24.7211046,28.5414924 L24.7211046,12.8527384 Z" id="Combined-Shape"></path>
                <path d="M1.68269231,1.34615385 L27.3173077,1.34615385 C28.246633,1.34615385 29,2.09952085 29,3.02884615 L29,3.02884615 C29,3.95817145 28.246633,4.71153846 27.3173077,4.71153846 L1.68269231,4.71153846 C0.753367007,4.71153846 -3.30279684e-16,3.95817145 -4.4408921e-16,3.02884615 L-2.22044605e-16,3.02884615 C-3.3585413e-16,2.09952085 0.753367007,1.34615385 1.68269231,1.34615385 Z" id="Rectangle"></path>
                <path d="M8.17895928,0 L21.1622172,1.44328993e-15 C21.5339473,3.84516205e-16 21.8352941,0.301346803 21.8352941,0.673076923 L21.8352941,0.673076923 C21.8352941,1.04480704 21.5339473,1.34615385 21.1622172,1.34615385 L8.17895928,1.34615385 C7.80722916,1.34615385 7.50588235,1.04480704 7.50588235,0.673076923 L7.50588235,0.673076923 C7.50588235,0.301346803 7.80722916,6.82857153e-17 8.17895928,0 Z" id="Rectangle"></path>
            </g>
        </g>
    </g>
</svg>