<?xml version="1.0" encoding="UTF-8"?>
<svg width="14px" height="14px" viewBox="0 0 14 14" version="1.1" xmlns="http://www.w3.org/2000/svg" xmlns:xlink="http://www.w3.org/1999/xlink">
    <!-- Generator: Sketch 52.6 (67491) - http://www.bohemiancoding.com/sketch -->
    <title>up-arrow-white</title>
    <desc>Created with Sketch.</desc>
    <g id="Page-1" stroke="none" stroke-width="1" fill="none" fill-rule="evenodd">
        <g id="Artboard" transform="translate(-450.000000, -1287.000000)" fill="#FFFFFF" fill-rule="nonzero">
            <path d="M450.929764,1294.23913 L461.323655,1289.41919 C461.985019,1289.1125 462.769786,1289.40002 463.076479,1290.06138 C463.206663,1290.34211 463.234079,1290.65966 463.153937,1290.95855 L460.097243,1302.35862 C459.908441,1303.06277 459.184566,1303.48054 458.480422,1303.29173 C458.126351,1303.1968 457.827704,1302.9589 457.656012,1302.63501 L455.569574,1298.6991 C455.416977,1298.41124 455.163311,1298.18998 454.857387,1298.07791 L451.031003,1296.67608 C450.346479,1296.4253 449.994861,1295.66708 450.245642,1294.98256 C450.366073,1294.65383 450.61216,1294.38642 450.929764,1294.23913 Z" id="up-arrow-white" transform="translate(456.690602, 1296.309398) rotate(-40.000000) translate(-456.690602, -1296.309398) "></path>
        </g>
    </g>
</svg>